<svg height="12" viewBox="0 0 16 12" width="16" xmlns="http://www.w3.org/2000/svg"><g fill="#bac4d1"><path d="m4.4 2.53333333 5 6.66666667c.16568542.2209139.1209139.53431458-.1.7-.08654809.06491106-.19181489.1-.3.1h-10c-.27614237 0-.5-.22385763-.5-.5 0-.10818511.03508894-.21345191.1-.3l5-6.66666667c.16568542-.2209139.4790861-.26568542.7-.1.03790283.02842713.07157288.06209717.1.1z" transform="matrix(0 -1 1 0 -2 10)"/><path d="m12.4 2.53333333 5 6.66666667c.1656854.2209139.1209139.53431458-.1.7-.0865481.06491106-.1918149.1-.3.1h-10c-.27614237 0-.5-.22385763-.5-.5 0-.10818511.03508894-.21345191.1-.3l5-6.66666667c.1656854-.2209139.4790861-.26568542.7-.1.0379028.02842713.0715729.06209717.1.1z" transform="matrix(0 -1 1 0 6 18)"/></g></svg>