<svg height="32" viewBox="0 0 32 32" width="32" xmlns="http://www.w3.org/2000/svg"><g fill="none" fill-rule="evenodd"><circle cx="16" cy="16" fill="#ff3465" fill-rule="nonzero" r="16"/><path d="m22.228 23.272c-.5280026.4560023-1.3139948.8739981-2.358 1.254s-2.2579931.57-3.642.57c-1.4480072 0-2.7419943-.2279977-3.882-.684s-2.107996-1.085996-2.904-1.89c-.79600398-.804004-1.40199792-1.7339947-1.818-2.79s-.624-2.187994-.624-3.396c0-1.2640063.22199778-2.4559944.666-3.576s1.08799578-2.1139957 1.932-2.982c.8440042-.86800434 1.867994-1.54799754 3.072-2.04s2.5659924-.738 4.086-.738c1.0880054 0 2.1439949.14399856 3.168.432s1.9419959.73599696 2.754 1.344 1.4579976 1.3879952 1.938 2.34.72 2.0919934.72 3.42c0 1.1840059-.1939981 2.2279955-.582 3.132s-.9339965 1.6119974-1.638 2.124-1.5239953.768-2.46.768c-.7360037 0-1.2799982-.1259987-1.632-.378s-.5999993-.4619992-.744-.63c-.0720004-.0880004-.1239998-.128-.156-.12s-.0839996.0559996-.156.144c-.3440017.3840019-.7799974.6999988-1.308.948s-1.0999969.372-1.716.372c-1.0800054 0-1.9739965-.3779962-2.682-1.134s-1.058-1.7619937-1.05-3.018c0-.9280046.195998-1.8039959.588-2.628s.9539963-1.4919974 1.686-2.004 1.601995-.768 2.61-.768c.6640033 0 1.1659983.099999 1.506.3s.6459986.4279987.918.684c.1120006.1120006.1799999.0800009.204-.096l.06-.288h2.496l-.84 5.016c-.0800004.4560023-.0580006.7659992.066.93s.285999.246.486.246c.408002 0 .809998-.2699973 1.206-.81s.594-1.4219939.594-2.646c0-1.3680068-.2819972-2.4399961-.846-3.216s-1.3039954-1.3219984-2.22-1.638c-.9160046-.31600158-1.9059947-.474-2.97-.474-1.7200086 0-3.1019948.31799682-4.146.954-1.0440052.6360032-1.7999977 1.4779948-2.268 2.526-.46800234 1.0480052-.702 2.1919938-.702 3.432 0 1.4880074.29199708 2.7259951.876 3.714.5840029.9880049 1.4019947 1.7279975 2.454 2.22s2.277993.738 3.678.738c.7280036 0 1.3419975-.0599994 1.842-.18s.9419981-.283999 1.326-.492.7679981-.4399987 1.152-.696zm-7.932-6.864c0 .4640023.1179988.891998.354 1.284s.6139974.588 1.134.588c.400002 0 .7559984-.1199988 1.068-.36s.5559991-.5479981.732-.924.264-.763998.264-1.164c0-.4720024-.1259987-.905998-.378-1.302s-.6299975-.594-1.134-.594c-.5280026 0-.9999979.2379976-1.416.714s-.624 1.0619965-.624 1.758z" fill="#fff"/></g></svg>