<svg viewBox="0 0 1440 1470" xmlns="http://www.w3.org/2000/svg"><g fill="none"><path d="m0 0h1440v1470h-1440z" fill="#15266c"/><g fill-opacity=".1"><path d="m0 1077c276.696677-2.10177 488.363343-148.768438 635-440s414.96999-483.898229 805-578v1410h-1440z" fill="#6982fa"/><path d="m0 915c259.333333 56.666667 471-35.666667 635-277s432.33333-392.333333 805-453v1285h-1440z" fill="#7c7dec"/><path d="m0 782c202.666667 98 414.333333 50 635-144s489-301 805-321v1153h-1440z" fill="#8f79dd"/><path d="m0 663.632494c210.666667 127.391393 422.333333 118.720774 635-26.011855s481-210.762723 805-198.090281v1030.469642h-1440z" fill="#a173cc"/><path d="m0 552.241621c173.333333 173.287712 385 201.946833 635 85.977365 250-115.969469 518.33333-143.628853 805-82.978154v914.759168h-1440z" fill="#b370be"/><path d="m0 422c154 222.291981 365.666667 294.364976 635 216.218986 269.333333-78.145991 537.66667-66.885653 805 33.781014v798h-1440z" fill="#c66bae"/></g></g></svg>