<svg viewBox="0 0 188 34" xmlns="http://www.w3.org/2000/svg"><g fill="none" fill-rule="evenodd"><path d="m21.2783603 17.0781427c0 2.2114116-.481406 4.2038416-1.4442326 5.9773499-.9628265 1.7735083-2.3375082 3.1693041-4.1240864 4.1874293-1.7865781 1.0181251-3.8673221 1.52718-6.24229424 1.52718h-9.46774706v-23.25254811h9.46774706c2.37497214 0 4.45571614.49263381 6.24229424 1.4779162 1.7865782.98528239 3.1612599 2.35370962 4.1240864 4.10532281.9628266 1.7516131 1.4442326 3.7440431 1.4442326 5.9773499zm-12.4524944 5.189128c1.6047109 0 2.8777625-.4488442 3.8191929-1.3465459s1.4121385-2.1785496 1.4121385-3.8425821-.4707081-2.9448804-1.4121385-3.8425821-2.214482-1.3465459-3.8191929-1.3465459h-1.70098506v10.378256zm26.092469-17.14382789c2.1396146 0 4.0973325.50905493 5.8732126 1.52718007 1.7758801 1.01812513 3.1826556 2.43581575 4.2203686 4.25311442 1.0377131 1.8172986 1.5565618 3.8644657 1.5565618 6.1415628s-.5188487 4.3242642-1.5565618 6.1415629c-1.037713 1.8172986-2.4498375 3.2404629-4.2364156 4.2695356-1.7865782 1.0290728-3.7389472 1.5436014-5.8571656 1.5436014-2.1396145 0-4.1026814-.5145286-5.8892596-1.5436014-1.7865781-1.0290727-3.2040515-2.452237-4.2524627-4.2695356-1.0484111-1.8172987-1.5726088-3.8644658-1.5726088-6.1415629s.5241977-4.3242642 1.5726088-6.1415628c1.0484112-1.81729867 2.4658846-3.23498929 4.2524627-4.25311442 1.7865782-1.01812514 3.7496451-1.52718007 5.8892596-1.52718007zm0 6.73272929c-1.4335417 0-2.5354267.4652653-3.3056879 1.3958098-.7702613.9305445-1.1553861 2.1949712-1.1553861 3.7933182 0 1.5764518.3851248 2.8299312 1.1553861 3.7604757.7702612.9305444 1.8721462 1.3958097 3.3056879 1.3958097 1.4121456 0 2.5033327-.4652653 3.2735939-1.3958097.7702613-.9305445 1.1553861-2.1840239 1.1553861-3.7604757 0-1.598347-.3851248-2.8627737-1.1553861-3.7933182-.7702612-.9305445-1.8614483-1.3958098-3.2735939-1.3958098zm36.0095329 16.9139298h-7.1248808l-7.5421036-11.6919592v11.6919592h-7.1248809v-23.25254811h7.1248809l7.5421036 11.88901471v-11.88901471h7.1248808zm8.2160788-28.7701019c.5349037 1.40129051.8023515 2.86824451.8023515 4.400906 0 1.70782281-.4439634 3.10361859-1.3319034 4.18742922-.8879401 1.08381063-2.1984343 1.62570778-3.9315221 1.62570778v-2.59456395c.5562998 0 .9895652-.20252723 1.2998093-.60758777s.4653639-1.01264223.4653639-1.82276331v-.39411098h-2.3107722v-4.79501699zm21.8560534 5.51755379v5.78029441h-6.0336829v17.4722537h-7.1248808v-17.4722537h-5.9694948v-5.78029441z" fill="#fff"/><path d="m169.509487 5v23h-7.144062v-11.4675141l-3.523542 11.4675141h-6.141953l-3.523542-11.4675141v11.4675141h-7.176388v-23h8.792691l5.042868 13.8064972 4.913563-13.8064972zm10.408995 5.7175141v2.8587571h7.111736v5.4251412h-7.111736v3.2485876h8.081518v5.75h-15.257906v-23h15.257906v5.7175141z" fill="#fff"/><path d="m131.406414 30.7745358c-.950267.8063701-2.364847 1.5455316-4.243783 2.2175066-1.878936.6719751-4.063797 1.0079576-6.554647 1.0079576-2.606034 0-4.934872-.403179-6.986583-1.2095491-2.051712-.8063701-3.793841-1.9204173-5.22644-3.342175-1.432599-1.4217578-2.52323-3.0663037-3.271924-4.933687-.748695-1.8673834-1.123037-3.8691317-1.123037-6.0053051 0-2.2352013.399538-4.3430493 1.198626-6.3236074.799087-1.9805581 1.958107-3.73827704 3.477094-5.27320956s3.3619-2.73739618 5.528796-3.60742705c2.166895-.87003088 4.618114-1.30503979 7.35373-1.30503979 1.958125 0 3.85863.25463936 5.701571.76392573s3.495084 1.30149772 4.956479 2.37665782c1.461395 1.07516011 2.624014 2.45445666 3.487892 4.13793104.863879 1.68347441 1.295812 3.69936931 1.295812 6.04774531 0 2.0937329-.349146 3.9398683-1.047448 5.5384616s-1.680949 2.8505702-2.947971 3.7559682c-1.267022.9053979-2.742792 1.3580901-4.427356 1.3580901-1.324614 0-2.303662-.2228094-2.937173-.668435-.633511-.4456255-1.079841-.8169746-1.339005-1.1140583-.129582-.1556153-.223167-.2263485-.280759-.2122016-.057592.0141468-.151177.0990266-.280759.2546419-.619113.6790485-1.403791 1.2378404-2.354058 1.6763926-.950266.4385521-1.979706.6578249-3.088351.6578249-1.943727 0-3.552676-.6684283-4.826897-2.005305-1.274222-1.3368768-1.904124-3.1158156-1.889726-5.3368701 0-1.6410338.352746-3.1900899 1.058246-4.6472148.705501-1.4571249 1.716944-2.6383686 3.034359-3.5437666s2.883172-1.35809019 4.697317-1.35809019c1.195032 0 2.098492.17683289 2.710406.53050399s1.162628.7568501 1.652159 1.2095491c.201572.1980558.323953.1414692.367147-.1697613l.107984-.5092838h4.492147l-1.51178 8.8700265c-.14398.8063701-.104386 1.354552.118782 1.6445623.223169.2900103.514724.4350133.874673.4350133.734297 0 1.457785-.4774488 2.170484-1.4323608.7127-.9549119 1.069045-2.514578 1.069045-4.679045 0-2.4191103-.507521-4.3147589-1.522579-5.6870027-1.015057-1.37224382-2.34685-2.3377514-3.995418-2.89655172-1.648569-.55880032-3.430292-.83819629-5.345223-.83819629-3.095565 0-5.582778.5623286-7.461715 1.68700266-1.878936 1.12467405-3.239524 2.61360695-4.081806 4.46684345s-1.263416 3.8762048-1.263416 6.0689656c0 2.6313129.525518 4.820504 1.576571 6.5676392 1.051052 1.7471352 2.523223 3.0556986 4.416557 3.9257295 1.893334.8700308 4.099791 1.3050398 6.619437 1.3050398 1.310216 0 2.415245-.1060998 3.315118-.3183024.899874-.2122027 1.69535-.5022086 2.386453-.8700266.691103-.3678179 1.382196-.7780702 2.073298-1.2307692zm-14.275524-12.137931c0 .8205169.212367 1.5773617.637107 2.270557.424741.6931953 1.105035 1.0397878 2.040904 1.0397878.719898 0 1.360599-.2121995 1.92212-.6366048s1.000653-.9690506 1.317408-1.6339522c.316756-.6649017.475131-1.3510133.475131-2.0583555 0-.8346637-.226765-1.6021185-.680301-2.3023872-.453536-.7002688-1.13383-1.0503979-2.040903-1.0503979-.950267 0-1.799734.4208623-2.548429 1.2625995-.748695.8417371-1.123037 1.8779779-1.123037 3.1087533z" fill="#ff3465"/></g></svg>